<svg xmlns="http://www.w3.org/2000/svg" viewBox="0 0 549 145">
<g transform="translate(-231.695535,440.575648) scale(0.1,-0.1)" fill="#3B8DD4" stroke="none">
<path d="M3000 4400 c-106 -11 -190 -35 -300 -88 -81 -38 -108 -58 -181 -131 -140 -140 -203 -293 -202 -491 1 -151 33 -267 110 -399 l26 -44 18 48 c10 26 31 61 46 78 31 33 116 77 149 77 l21 0 -18 66 c-56 203 -24 367 96 493 112 118 260 166 483 159 128 -4 132 -4 132 16 0 42 22 97 50 130 l29 33 -57 17 c-129 37 -271 50 -402 36z"/>
<path d="M3509 4301 c-34 -34 -39 -44 -39 -87 l-1 -49 -131 -80 c-73 -44 -175 -107 -227 -141 l-95 -61 -34 24 c-42 28 -111 31 -152 7 -74 -44 -82 -151 -15 -209 l23 -20 -63 -155 -64 -155 -46 -7 c-88 -13 -135 -67 -135 -154 0 -93 71 -164 164 -164 91 0 150 46 164 129 7 42 10 45 62 67 30 13 131 55 223 94 163 68 197 79 197 62 0 -14 76 -52 104 -52 120 0 175 139 85 214 -43 37 -87 42 -144 17 -38 -17 -51 -18 -68 -9 -15 8 -253 162 -286 184 -2 2 1 20 6 40 9 40 -17 22 320 231 146 91 153 94 175 79 34 -24 108 -21 149 7 49 33 65 87 43 145 -21 56 -62 82 -128 82 -43 0 -53 -4 -87 -39z m-404 -657 c50 -36 116 -83 148 -106 61 -44 70 -63 35 -78 -13 -5 -115 -47 -228 -94 -201 -84 -205 -85 -220 -65 -9 11 -27 27 -42 37 l-26 17 54 140 c30 77 59 150 64 163 6 13 18 22 32 22 13 1 34 7 48 15 14 8 30 14 35 14 6 1 51 -29 100 -65z"/>
<path d="M5880 4083 c-51 -19 -69 -93 -32 -126 21 -19 83 -22 113 -6 50 26 41 109 -13 128 -33 12 -45 12 -68 4z"/>
<path d="M7186 3954 c-23 -22 -20 -71 3 -84 48 -25 101 -1 101 45 0 45 -71 72 -104 39z"/>
<path d="M4325 3848 c-97 -34 -152 -137 -114 -211 17 -32 61 -77 76 -77 21 0 15 -16 -13 -30 -14 -8 -32 -27 -40 -42 -13 -25 -13 -32 1 -57 8 -16 23 -31 32 -33 13 -3 8 -9 -19 -20 -55 -25 -78 -52 -78 -96 0 -73 65 -109 212 -119 202 -14 318 48 318 168 0 38 -6 53 -28 77 -36 39 -86 52 -198 52 -102 0 -138 14 -118 47 9 14 28 19 90 23 92 6 148 31 182 80 25 38 29 97 7 126 -25 33 -18 44 25 44 40 0 41 1 38 34 l-2 33 -125 7 c-163 8 -209 7 -246 -6z m168 -88 c52 -41 42 -116 -20 -145 -100 -48 -190 60 -114 136 36 36 95 40 134 9z m53 -405 c49 -32 17 -98 -53 -111 -46 -9 -122 -1 -158 17 -21 10 -31 23 -33 42 -4 35 11 54 52 67 43 13 163 4 192 -15z"/>
<path d="M4843 3835 c-110 -55 -156 -209 -99 -332 26 -55 70 -91 140 -113 57 -18 211 -9 261 15 37 18 40 23 37 55 -5 48 -14 54 -51 36 -48 -25 -127 -37 -174 -26 -49 10 -97 58 -97 95 l0 25 170 0 170 0 0 38 c-1 100 -40 176 -110 212 -60 31 -180 28 -247 -5z m188 -65 c21 -12 49 -60 49 -85 0 -13 -17 -15 -110 -15 -70 0 -110 4 -110 10 0 21 30 69 52 84 26 18 90 21 119 6z"/>
<path d="M5270 3624 l0 -234 64 0 64 0 3 156 4 156 33 29 c42 38 98 40 139 5 l28 -24 3 -161 3 -161 65 0 66 0 -4 188 c-3 161 -6 192 -21 215 -30 47 -74 67 -145 67 -69 0 -117 -16 -146 -48 -22 -25 -36 -20 -36 14 0 25 1 25 -87 29 l-33 2 0 -233z"/>
<path d="M5840 3623 l0 -233 65 0 65 0 0 233 0 232 -65 0 -65 0 0 -232z"/>
<path d="M6070 3623 l0 -233 65 0 65 0 0 128 c0 101 4 134 18 161 22 45 58 70 104 73 l38 3 0 53 c0 51 0 52 -30 52 -39 0 -82 -22 -108 -55 -26 -33 -32 -32 -32 9 l0 34 -60 4 -60 3 0 -232z"/>
<path d="M6531 3843 c-57 -20 -126 -90 -140 -139 -33 -117 5 -235 92 -288 42 -26 61 -31 137 -34 113 -6 177 14 234 72 47 46 66 98 66 175 0 90 -43 161 -125 204 -54 28 -200 34 -264 10z m180 -84 c66 -26 93 -170 46 -240 -14 -22 -38 -39 -64 -48 -37 -13 -45 -13 -88 3 -68 26 -87 61 -83 153 3 60 7 76 28 99 48 51 92 60 161 33z"/>
<path d="M7465 3782 c-47 -23 -89 -65 -104 -105 -18 -46 -13 -143 8 -185 41 -80 103 -112 214 -112 91 0 148 26 192 89 25 36 30 53 33 114 3 87 -19 134 -86 182 -39 27 -52 30 -130 33 -69 2 -95 -1 -127 -16z m183 -77 c40 -34 55 -75 50 -136 -6 -59 -43 -105 -93 -115 -47 -9 -110 21 -129 61 -20 42 -21 117 -1 155 32 61 121 79 173 35z"/>
<path d="M7170 3590 l0 -200 55 0 55 0 0 200 0 200 -55 0 -55 0 0 -200z"/>
<path d="M3195 3715 l110 -66 90 7 c72 5 99 3 130 -10 122 -51 160 -189 78 -287 -32 -38 -95 -68 -141 -69 -18 0 -55 -11 -82 -25 -82 -42 -153 -55 -291 -55 -89 0 -130 -4 -137 -13 -6 -6 -20 -37 -32 -67 -12 -30 -37 -72 -57 -92 l-36 -37 42 -10 c22 -6 60 -16 84 -22 23 -7 107 -12 187 -12 221 1 368 43 505 145 173 128 255 311 255 568 l0 110 -407 0 -408 0 110 -65z"/>
<path d="M7010 3477 c-28 -14 -39 -59 -19 -83 14 -17 80 -19 97 -2 16 16 15 50 0 70 -19 23 -50 29 -78 15z"/>
</g>
</svg>