<svg xmlns="http://www.w3.org/2000/svg" viewBox="0 0 498 455">
<g transform="translate(-8.178676,462.809739) scale(0.1,-0.1)" fill="#3B8DD4" stroke="none">
<path d="M2265 4615 c-161 -15 -348 -47 -485 -83 -69 -18 -314 -104 -392 -138 -323 -138 -605 -352 -817 -619 -79 -99 -171 -227 -171 -238 0 -2 -22 -42 -48 -88 -71 -125 -152 -314 -182 -424 -31 -113 -39 -148 -50 -210 -7 -38 -16 -92 -22 -120 -26 -138 -21 -438 12 -690 35 -262 135 -539 311 -852 33 -58 92 -143 100 -143 4 0 12 19 17 43 60 257 217 431 482 534 67 26 198 56 211 48 15 -10 23 24 11 48 -30 65 -95 338 -118 498 -21 152 -14 424 15 554 20 89 46 173 74 237 8 18 21 49 28 68 58 158 298 434 478 552 214 141 489 234 851 290 109 17 424 17 605 0 77 -7 164 -14 193 -17 l52 -4 0 38 c0 60 28 204 51 268 28 75 78 153 141 219 35 37 46 55 37 59 -80 28 -253 85 -289 93 -97 24 -228 51 -295 61 -206 32 -547 38 -800 16z"/>
<path d="M4007 4419 c-59 -14 -136 -57 -188 -106 -59 -55 -84 -94 -104 -159 -17 -56 -20 -190 -5 -230 13 -33 2 -48 -54 -74 -23 -11 -90 -51 -151 -89 -60 -39 -159 -100 -220 -137 -60 -37 -135 -84 -166 -105 -31 -21 -78 -50 -105 -64 -27 -15 -83 -49 -124 -75 -92 -58 -265 -168 -467 -295 -83 -52 -155 -95 -160 -95 -5 0 -24 17 -41 39 -70 87 -241 137 -376 111 -190 -37 -313 -163 -339 -347 -23 -163 54 -325 180 -379 18 -8 33 -20 33 -26 0 -12 -127 -341 -160 -413 -31 -68 -105 -253 -165 -410 -32 -82 -62 -155 -67 -162 -6 -8 -25 -10 -51 -7 -110 15 -300 -60 -397 -156 -126 -124 -168 -330 -106 -513 53 -158 187 -283 361 -338 53 -17 249 -17 300 0 85 27 149 64 202 114 103 97 143 182 162 341 10 85 19 105 48 106 12 0 142 49 208 80 22 9 60 25 85 33 56 19 141 52 194 76 23 11 70 31 106 46 76 32 143 61 184 81 16 8 33 14 37 14 5 0 32 11 61 24 101 45 193 85 293 124 55 22 131 52 168 68 l68 28 42 -46 c174 -188 455 -205 624 -38 76 76 107 145 111 250 3 66 -1 96 -15 136 -36 93 -140 202 -233 242 -46 19 -202 27 -267 13 -29 -6 -80 -29 -115 -51 -103 -66 -100 -65 -141 -38 -19 12 -64 41 -99 62 -35 22 -162 105 -283 185 -122 80 -247 162 -278 181 -32 19 -77 49 -100 66 -24 17 -70 48 -103 69 -64 41 -76 54 -66 70 4 5 9 52 12 104 l5 95 37 20 c47 26 142 84 283 171 61 37 132 81 158 97 26 15 80 50 120 77 75 50 220 141 392 243 55 33 147 91 205 128 58 37 137 86 175 109 39 23 78 47 87 53 14 10 25 7 61 -20 74 -53 128 -67 257 -67 108 0 119 2 182 32 154 73 228 196 228 382 0 62 -5 83 -32 139 -85 179 -294 278 -491 231z m-1676 -2015 c104 -70 159 -109 274 -194 97 -72 316 -230 483 -350 57 -40 106 -79 109 -87 3 -8 -1 -30 -8 -49 -15 -39 -54 -60 -259 -140 -86 -33 -126 -49 -215 -90 -83 -37 -383 -162 -405 -169 -14 -4 -38 -13 -55 -21 -68 -31 -452 -187 -472 -191 -16 -4 -25 2 -36 23 -21 40 -122 135 -180 169 -34 19 -47 33 -44 44 12 38 96 260 114 301 36 81 195 486 235 600 17 47 32 87 35 90 2 2 37 7 77 11 56 4 89 14 145 42 40 20 79 44 87 52 9 8 19 15 24 15 4 0 45 -25 91 -56z"/>
<path d="M2510 2667 c0 -4 19 -19 43 -33 23 -13 114 -68 202 -121 158 -94 376 -217 425 -239 65 -29 80 -33 107 -25 117 37 463 47 548 17 185 -65 314 -177 372 -321 41 -104 45 -123 44 -231 0 -169 -49 -291 -162 -404 -110 -111 -285 -180 -455 -180 -46 0 -72 -9 -173 -60 -318 -159 -503 -192 -1046 -187 -267 2 -270 2 -307 -21 -52 -32 -70 -62 -108 -172 -43 -124 -72 -189 -110 -244 -33 -49 -114 -133 -167 -173 -39 -30 -41 -39 -10 -46 12 -3 54 -15 92 -27 321 -96 473 -115 885 -114 301 0 431 12 650 56 321 65 658 209 878 377 41 31 94 71 120 88 60 42 193 173 242 239 21 28 60 76 87 106 104 119 260 447 303 638 5 19 18 72 29 118 21 84 31 151 52 357 10 100 8 590 -3 600 -8 8 -2538 10 -2538 2z"/>
</g>
</svg>